#!OML:ASF E:\acrobat2\Project_11_07_03\Capture day 1\Session 1\Acrobat.ASF
:FULLY-SPECIFIED
:DEGREES
465
root 11.0737 19.0607 11.4238 23.6759 -6.03204 0.824964
lowerback 21.0168 1.17036 1.73129
upperback 4.91463 1.8296 -0.350989
thorax -6.32097 0.848024 -1.8363
lowerneck 2.56027 -1.58207 -0.125294
upperneck -27.1525 -1.59235 2.91413
head -8.84956 -1.06361 1.15207
rclavicle 9.93923e-015 -6.36111e-015
rhumerus -96.4679 7.56035 -1.98478
rradius 10.3858
rwrist 32.694
rhand -0.265371 -42.3088
rfingers 7.12502
rthumb 25.3362 -70.6458
lclavicle 9.93923e-015 -6.36111e-015
lhumerus -91.1128 -2.80084 78.4628
lradius 1.77767
lwrist 1.68545
lhand 4.01145 -11.3015
lfingers 7.12502
lthumb 29.4266 16.388
rfemur -77.0616 -7.00818 14.4171
rtibia 73.7321
rfoot -17.7603 -7.41565
rtoes 8.0489
lfemur -78.0195 2.70332 -11.1549
ltibia 72.3563
lfoot -12.5995 -6.27731
ltoes 3.12936
466
root 11.086 18.8382 11.3446 23.8857 -6.04545 0.82296
lowerback 21.1508 1.14398 1.82307
upperback 5.29106 1.81198 -0.326139
thorax -5.98119 0.845446 -1.85371
lowerneck 2.1591 -1.60228 -0.323311
upperneck -27.4105 -1.56248 3.24178
head -8.86079 -1.06358 1.29538
rclavicle 9.93923e-015 9.54166e-015
rhumerus -96.6201 9.99979 3.8226
rradius 10.3335
rwrist 34.5971
rhand 0.297892 -41.743
rfingers 7.12502
rthumb 25.8757 -70.0025
lclavicle 9.93923e-015 9.54166e-015
lhumerus -93.4048 -2.24578 78.8857
lradius 1.66068
lwrist 3.53867
lhand 4.50048 -11.2202
lfingers 7.12502
lthumb 29.8934 16.3863
rfemur -78.3378 -7.13793 14.5141
rtibia 74.8753
rfoot -18.5735 -8.1411
rtoes 9.00846
lfemur -79.3165 2.83304 -11.161
ltibia 73.458
lfoot -13.5415 -6.04208
ltoes 2.58649
467
root 11.097 18.6161 11.276 24.0763 -6.01233 0.832787
lowerback 21.2679 1.10486 1.91249
upperback 5.61224 1.77951 -0.282159
thorax -5.69384 0.835048 -1.84617
lowerneck 1.78679 -1.64268 -0.446087
upperneck -27.7419 -1.58252 3.44183
head -8.90495 -1.0827 1.38818
rclavicle -6.75868e-015 -1.78906e-014
rhumerus -96.3713 12.2108 9.22109
rradius 10.3959
rwrist 35.7008
rhand 0.545711 -41.2819
rfingers 7.12502
rthumb 26.113 -69.5066
lclavicle -6.75868e-015 -1.78906e-014
lhumerus -95.4093 -1.69849 79.3438
lradius 1.60585
lwrist 5.24205
lhand 5.09575 -11.1445
lfingers 7.12502
lthumb 30.4613 16.3583
rfemur -79.3111 -7.32861 14.6456
rtibia 75.6938
rfoot -19.2855 -8.43108
rtoes 10.226
lfemur -80.4405 2.96111 -11.2489
ltibia 74.6022
lfoot -14.5745 -5.87221
ltoes 2.23897
468
root 11.1061 18.3954 11.2178 24.2532 -5.93992 0.852616
lowerback 21.467 1.04414 1.96892
upperback 5.80802 1.71777 -0.214252
thorax -5.58789 0.8073 -1.79144
lowerneck 1.38492 -1.69336 -0.495004
upperneck -28.019 -1.6406 3.52189
head -8.92633 -1.11509 1.42899
rclavicle 2.22639e-014 1.59028e-014
rhumerus -95.9303 14.1297 13.5203
rradius 10.5422
rwrist 35.7755
rhand 0.372737 -41.0381
rfingers 7.12502
rthumb 25.9473 -69.2871
lclavicle 2.22639e-014 1.59028e-014
lhumerus -97.0917 -1.13795 79.8196
lradius 1.4317
lwrist 6.71539
lhand 5.77626 -11.1585
lfingers 7.12502
lthumb 31.1101 16.222
rfemur -80.0297 -7.56695 14.8052
rtibia 76.2552
rfoot -19.9873 -8.40143
rtoes 11.5985
lfemur -81.4383 3.09559 -11.4049
ltibia 75.7761
lfoot -15.6475 -5.763
ltoes 2.3614
469
root 11.1126 18.1773 11.1685 24.41 -5.84482 0.877127
lowerback 21.7789 0.963658 1.97898
upperback 5.8708 1.6271 -0.126821
thorax -5.68717 0.761877 -1.68689
lowerneck 0.975717 -1.75028 -0.453484
upperneck -28.2282 -1.72748 3.49554
head -8.92453 -1.15979 1.4185
rclavicle -4.37326e-015 0
rhumerus -95.4837 15.6811 16.4849
rradius 10.7042
rwrist 35.0991
rhand -0.119848 -40.905
rfingers 7.12502
rthumb 25.4756 -69.2222
lclavicle -4.37326e-015 0
lhumerus -98.5038 -0.596349 80.2487
lradius 1.30235
lwrist 7.77853
lhand 6.57733 -11.1133
lfingers 7.12502
lthumb 31.8733 16.118
rfemur -80.5567 -7.8219 14.9755
rtibia 76.6476
rfoot -20.7444 -8.18164
rtoes 13.1015
lfemur -82.3525 3.2547 -11.6102
ltibia 76.949
lfoot -16.6868 -5.6685
ltoes 2.89533
470
root 11.1159 17.9632 11.1262 24.5293 -5.74792 0.906913
lowerback 22.147 0.872726 1.94675
upperback 5.87291 1.51674 -0.0376846
thorax -5.88263 0.705628 -1.55252
lowerneck 0.64295 -1.81169 -0.362024
upperneck -28.505 -1.82017 3.45304
head -8.96204 -1.21223 1.39646
rclavicle 3.97569e-015 8.74653e-015
rhumerus -95.2244 16.7318 18.0908
rradius 10.8286
rwrist 34.1636
rhand -0.716363 -40.7866
rfingers 7.12502
rthumb 24.904 -69.1841
lclavicle 3.97569e-015 8.74653e-015
lhumerus -99.4086 -0.0839497 80.6218
lradius 1.01399
lwrist 8.31981
lhand 7.35014 -11.1585
lfingers 7.12502
lthumb 32.6089 15.9234
rfemur -80.962 -8.06701 15.1369
rtibia 76.9769
rfoot -21.5687 -7.89901
rtoes 14.6045
lfemur -83.2037 3.45329 -11.8521
ltibia 78.0784
lfoot -17.6246 -5.51881
ltoes 3.46778
471
root 11.1159 17.7546 11.089 24.5936 -5.66559 0.928504
lowerback 22.5386 0.779081 1.88502
upperback 5.87054 1.39658 0.0432581
thorax -6.09504 0.644964 -1.40654
lowerneck 0.359232 -1.88135 -0.242325
upperneck -28.8579 -1.91611 3.43588
head -9.03647 -1.27312 1.3806
rclavicle 7.55382e-015 4.77083e-015
rhumerus -95.2256 17.1936 18.5389
rradius 10.8792
rwrist 33.5
rhand -1.09616 -40.5567
rfingers 7.12502
rthumb 24.54 -69.0041
lclavicle 7.55382e-015 4.77083e-015
lhumerus -99.8256 0.356409 80.8877
lradius 0.826019
lwrist 8.27227
lhand 8.07632 -11.1911
lfingers 7.12502
lthumb 33.2996 15.7455
rfemur -81.3132 -8.27996 15.2952
rtibia 77.3432
rfoot -22.4253 -7.64003
rtoes 15.9641
lfemur -84.0011 3.70863 -12.1089
ltibia 79.1468
lfoot -18.4245 -5.25867
ltoes 3.87667
